<svg width="18" height="18" xmlns="http://www.w3.org/2000/svg" shape-rendering="crispEdges"><path d="M5 0h1v1H5zM6 0h1v1H6zM7 0h1v1H7zM8 0h1v1H8zM9 0h1v1H9zM10 0h1v1h-1zM11 0h1v1h-1zM12 0h1v1h-1zM3 1h1v1H3zM4 1h1v1H4zM5 1h1v1H5zM6 1h1v1H6zM7 1h1v1H7zM8 1h1v1H8zM9 1h1v1H9zM10 1h1v1h-1zM11 1h1v1h-1zM12 1h1v1h-1zM13 1h1v1h-1zM14 1h1v1h-1zM2 2h1v1H2zM3 2h1v1H3zM4 2h1v1H4zM5 2h1v1H5zM12 2h1v1h-1zM13 2h1v1h-1zM14 2h1v1h-1zM15 2h1v1h-1zM1 3h1v1H1zM2 3h1v1H2zM3 3h1v1H3zM14 3h1v1h-1zM15 3h1v1h-1zM16 3h1v1h-1zM1 4h1v1H1zM2 4h1v1H2zM15 4h1v1h-1zM16 4h1v1h-1zM0 5h1v1H0zM1 5h1v1H1zM2 5h1v1H2zM5 5h1v1H5zM6 5h1v1H6zM8 5h1v1H8zM9 5h1v1H9zM11 5h1v1h-1zM12 5h1v1h-1zM15 5h1v1h-1zM16 5h1v1h-1zM17 5h1v1h-1zM0 6h1v1H0zM1 6h1v1H1zM6 6h1v1H6zM7 6h1v1H7zM8 6h1v1H8zM9 6h1v1H9zM10 6h1v1h-1zM11 6h1v1h-1zM16 6h1v1h-1zM17 6h1v1h-1zM0 7h1v1H0zM1 7h1v1H1zM5 7h1v1H5zM6 7h1v1H6zM7 7h1v1H7zM8 7h1v1H8zM9 7h1v1H9zM10 7h1v1h-1zM11 7h1v1h-1zM12 7h1v1h-1zM16 7h1v1h-1zM17 7h1v1h-1zM0 8h1v1H0zM1 8h1v1H1zM5 8h1v1H5zM6 8h1v1H6zM7 8h1v1H7zM8 8h1v1H8zM9 8h1v1H9zM10 8h1v1h-1zM11 8h1v1h-1zM12 8h1v1h-1zM16 8h1v1h-1zM17 8h1v1h-1zM0 9h1v1H0zM1 9h1v1H1zM5 9h1v1H5zM6 9h1v1H6zM7 9h1v1H7zM8 9h1v1H8zM9 9h1v1H9zM10 9h1v1h-1zM11 9h1v1h-1zM12 9h1v1h-1zM16 9h1v1h-1zM17 9h1v1h-1zM0 10h1v1H0zM1 10h1v1H1zM6 10h1v1H6zM7 10h1v1H7zM8 10h1v1H8zM9 10h1v1H9zM10 10h1v1h-1zM11 10h1v1h-1zM16 10h1v1h-1zM17 10h1v1h-1zM0 11h1v1H0zM1 11h1v1H1zM3 11h1v1H3zM4 11h1v1H4zM7 11h1v1H7zM8 11h1v1H8zM9 11h1v1H9zM10 11h1v1h-1zM16 11h1v1h-1zM17 11h1v1h-1zM0 12h1v1H0zM1 12h1v1H1zM2 12h1v1H2zM4 12h1v1H4zM5 12h1v1H5zM6 12h1v1H6zM7 12h1v1H7zM8 12h1v1H8zM9 12h1v1H9zM10 12h1v1h-1zM11 12h1v1h-1zM15 12h1v1h-1zM16 12h1v1h-1zM17 12h1v1h-1zM1 13h1v1H1zM2 13h1v1H2zM5 13h1v1H5zM6 13h1v1H6zM7 13h1v1H7zM8 13h1v1H8zM9 13h1v1H9zM10 13h1v1h-1zM11 13h1v1h-1zM15 13h1v1h-1zM16 13h1v1h-1zM1 14h1v1H1zM2 14h1v1H2zM3 14h1v1H3zM6 14h1v1H6zM7 14h1v1H7zM8 14h1v1H8zM9 14h1v1H9zM10 14h1v1h-1zM11 14h1v1h-1zM14 14h1v1h-1zM15 14h1v1h-1zM16 14h1v1h-1zM2 15h1v1H2zM3 15h1v1H3zM4 15h1v1H4zM5 15h1v1H5zM6 15h1v1H6zM7 15h1v1H7zM8 15h1v1H8zM9 15h1v1H9zM10 15h1v1h-1zM11 15h1v1h-1zM12 15h1v1h-1zM13 15h1v1h-1zM14 15h1v1h-1zM15 15h1v1h-1zM3 16h1v1H3zM4 16h1v1H4zM5 16h1v1H5zM6 16h1v1H6zM7 16h1v1H7zM8 16h1v1H8zM9 16h1v1H9zM10 16h1v1h-1zM11 16h1v1h-1zM12 16h1v1h-1zM13 16h1v1h-1zM14 16h1v1h-1zM5 17h1v1H5zM6 17h1v1H6zM7 17h1v1H7zM8 17h1v1H8zM9 17h1v1H9zM10 17h1v1h-1zM11 17h1v1h-1zM12 17h1v1h-1z"/></svg>